<?xml version="1.0" standalone="no"?>
<!DOCTYPE svg PUBLIC "-//W3C//DTD SVG 20010904//EN"
	"http://www.w3.org/TR/2001/REC-SVG-20010904/DTD/svg10.dtd">
<svg version="1.0" xmlns="http://www.w3.org/2000/svg"
		 width="700.000000pt" height="700.000000pt" viewBox="0 0 700.000000 700.000000"
		 preserveAspectRatio="xMidYMid meet">
<metadata>
Created by potrace 1.14, written by Peter Selinger 2001-2017
</metadata>
<g transform="translate(0.000000,700.000000) scale(0.100000,-0.100000)"
	 fill="#000000" stroke="none">
<path d="M3123 6985 c-600 -69 -1143 -274 -1635 -618 -312 -217 -624 -527
-844 -837 -355 -502 -571 -1075 -633 -1689 -14 -133 -14 -549 0 -682 101 -994
605 -1880 1406 -2476 504 -375 1107 -607 1742 -672 129 -14 554 -14 681 -1
317 33 652 113 945 227 109 42 375 169 375 178 0 4 -116 163 -258 354 -716
960 -883 1192 -1315 1831 -576 851 -814 1201 -896 1320 l-66 95 -7 -1024 c-7
-957 -9 -1026 -26 -1055 -30 -53 -71 -66 -204 -66 l-117 0 -41 38 -40 39 0
1388 0 1388 35 33 c43 40 84 48 232 42 71 -2 116 -9 132 -18 25 -16 177 -244
1274 -1905 396 -599 902 -1366 1124 -1702 223 -337 409 -613 414 -613 17 0
159 100 283 200 683 551 1127 1304 1271 2157 40 231 48 362 42 668 -6 320 -26
475 -97 763 -286 1147 -1136 2075 -2260 2467 -188 65 -448 127 -680 160 -153
22 -677 29 -837 10z m1594 -2115 c17 -10 38 -29 45 -42 10 -19 14 -262 16
-1268 1 -738 -1 -1241 -7 -1235 -5 6 -104 156 -220 335 l-212 324 3 906 c3
864 4 906 22 936 33 56 58 63 196 64 106 0 130 -3 157 -20z"/>
</g>
</svg>
